# xmcd
#
# Track frame offsets:
#	183
#	13680
#	22200
#	36163
#	51775
#	66158
#	77958
#	100848
#	113448
#	126715
#	139218
#	150948
#	163135
#	174160
#	207078
#	221188
#
# Disc length: 3051 seconds
#
# Revision: 8
# Processed by: cddbd v1.5.2PL0 Copyright (c) Steve Scherf et al.
# Submitted via: audiograbber 1.83.01
#
DISCID=e00be910
DTITLE=Various Artist - Play Me The Blues... The Legendary Blues Singers [CD 4-10)
DYEAR=1991
DGENRE=Blues
TTITLE0=Lightnin' Hopkins - Mojo Hand
TTITLE1=Johnny Guitar Watson - Looking Back
TTITLE2=Muddy Waters - You Can't Lose What You Ain't Never Had
TTITLE3=B.B. King - Walkin' And Cryin'
TTITLE4=Sonny Boy Williamson - Help Me
TTITLE5=Memphis Slim - Marack
TTITLE6=John Mayall - Baby What You Want Me To Do
TTITLE7=Elmore James - Standing At The Crossroads
TTITLE8=Muddy Waters - She Moves Me
TTITLE9=John Lee Hooker - Hobo Blues
TTITLE10=Jeff Beck - I'm A Man
TTITLE11=Nina Simone - Trouble In My Mind
TTITLE12=Howlin' Wolf - Little Red Rooster
TTITLE13=Mike Bloomfield - Wee Wee Hours
TTITLE14=Little Walter - Take Me Back
TTITLE15=Big Joe Williams - Terraplane Blues
EXTD=
EXTT0=
EXTT1=
EXTT2=
EXTT3=
EXTT4=
EXTT5=
EXTT6=
EXTT7=
EXTT8=
EXTT9=
EXTT10=
EXTT11=
EXTT12=
EXTT13=
EXTT14=
EXTT15=
PLAYORDER=
